<svg xmlns="http://www.w3.org/2000/svg" xmlns:xlink="http://www.w3.org/1999/xlink" width="48" height="49" viewBox="0 0 48 49"><defs><path id="ra2ta" d="M321 984.03v11.56c0 1.86-1.3 3.42-3 3.77V1011h-1.5v-11.56h-6.75v10.79c0 .42-.34.77-.75.77h-4.5a.76.76 0 0 1-.75-.77V997.9h-4.5v11.56h3v1.54h-7.5v-1.54h3V997.9h-4.5v12.33c0 .42-.34.77-.75.77H288a.76.76 0 0 1-.75-.77v-10.79h-6.75V1011H279v-11.64c-1.7-.35-3-1.91-3-3.77v-11.56c0-1.91 1.37-3.49 3.15-3.79a5.45 5.45 0 0 1-1.65-3.91c0-2.98 2.35-5.4 5.25-5.4s5.25 2.42 5.25 5.4c0 1.89-.96 3.56-2.4 4.52 1 .7 1.65 1.86 1.65 3.18v5.4h3v-3.86a5.35 5.35 0 0 1 4.63-5.35 5.44 5.44 0 0 1-1.63-3.9c0-2.97 2.35-5.39 5.25-5.39s5.25 2.42 5.25 5.4c0 1.53-.63 2.91-1.63 3.9 2.6.3 4.63 2.59 4.63 5.34v3.86h3v-5.4c0-1.32.65-2.49 1.64-3.18a5.43 5.43 0 0 1-2.39-4.52c0-2.98 2.35-5.4 5.25-5.4s5.25 2.42 5.25 5.4c0 1.54-.64 2.93-1.65 3.91a3.82 3.82 0 0 1 3.15 3.8zm-6.75-3.85a3.8 3.8 0 0 0 3.75-3.85 3.8 3.8 0 0 0-3.75-3.85 3.8 3.8 0 0 0-3.75 3.85 3.8 3.8 0 0 0 3.75 3.85zm-15.75 0a3.8 3.8 0 0 0 3.75-3.85 3.8 3.8 0 0 0-3.75-3.85 3.8 3.8 0 0 0-3.75 3.85 3.8 3.8 0 0 0 3.75 3.85zm-1.17 1.54l1.17 3.2 1.17-3.2zm-5.58 7.7h3c.41 0 .75.35.75.78v3.08h6v-3.08c0-.43.34-.77.75-.77h3v-3.86a3.8 3.8 0 0 0-3.75-3.85h-.23l-2.07 5.66c-.1.3-.39.5-.7.5-.31 0-.6-.2-.7-.5l-2.07-5.66h-.23a3.8 3.8 0 0 0-3.75 3.85zm-9-9.24a3.8 3.8 0 0 0 3.75-3.85 3.8 3.8 0 0 0-3.75-3.85 3.8 3.8 0 0 0-3.75 3.85 3.8 3.8 0 0 0 3.75 3.85zm9 16.95c0-1.27-1.01-2.31-2.25-2.31h-6.75a.76.76 0 0 1-.75-.77v-7.7h1.5v6.93H294v-2.31h-7.5a.76.76 0 0 1-.75-.77v-6.17c0-1.27-1.01-2.3-2.25-2.3h-3.75a2.28 2.28 0 0 0-2.25 2.3v11.56a2.28 2.28 0 0 0 2.25 2.31H288c.41 0 .75.35.75.77v10.79h3zm12.75-2.31h-12c.33.45.55.97.67 1.54h10.66c.12-.57.34-1.1.67-1.54zm15-10.79a2.28 2.28 0 0 0-2.25-2.3h-3.75a2.28 2.28 0 0 0-2.25 2.3v6.17c0 .42-.34.77-.75.77H303v2.3h10.5v-6.93h1.5v7.7c0 .43-.34.78-.75.78h-6.75a2.28 2.28 0 0 0-2.25 2.31v12.33h3v-10.79c0-.42.34-.77.75-.77h8.25a2.28 2.28 0 0 0 2.25-2.31zm-21.75 5.4h1.5v1.54h-1.5zm-2.25-24.66v3.85c0 .43-.34.77-.75.77h-3.5l-2.8 2.16a.74.74 0 0 1-.79.07.77.77 0 0 1-.41-.69v-1.54h-3a.76.76 0 0 1-.75-.77v-3.85c0-.42.34-.77.75-.77h10.5c.41 0 .75.35.75.77zm-1.5.77h-9v2.31h3c.41 0 .75.35.75.77v.77l1.8-1.38c.13-.1.29-.16.45-.16h3zm8.25.77h1.5v1.54h-1.5zm3 0h1.5v1.54h-1.5zm3 0h1.5v1.54h-1.5z"/><linearGradient id="ra2tb" x1="321" x2="276" y1="994" y2="981" gradientUnits="userSpaceOnUse"><stop offset="0" stop-color="#5ac855"/><stop offset=".5" stop-color="#1d8f8e"/><stop offset="1" stop-color="#5ac855"/></linearGradient></defs><g><g transform="translate(-274 -963)"><use xlink:href="#ra2ta"/><use fill="url(#ra2tb)" xlink:href="#ra2ta"/></g></g></svg>