<svg xmlns="http://www.w3.org/2000/svg" xmlns:xlink="http://www.w3.org/1999/xlink" width="50" height="44" viewBox="0 0 50 44"><defs><path id="qlj3a" d="M1112.93 979.9c0 1.4-1.03 2.25-1.8 2.87-.28.24-.81.67-.81.83 0 .63-.51 1.13-1.16 1.13-.64 0-1.16-.48-1.17-1.11-.01-1.24.91-1.98 1.65-2.6.58-.47.96-.8.96-1.11 0-.63-.51-1.14-1.15-1.14-.64 0-1.15.51-1.15 1.14 0 .63-.52 1.14-1.17 1.14-.64 0-1.16-.51-1.16-1.14a3.45 3.45 0 0 1 3.48-3.42 3.45 3.45 0 0 1 3.48 3.41zm-2.58 7.03c0 .63-.52 1.15-1.16 1.15-.65 0-1.14-.5-1.14-1.14a1.15 1.15 0 0 1 2.3 0zm-24.55 6.82c.65 0 1.17.51 1.17 1.15 0 .63-.52 1.14-1.17 1.14h-.1c-.64 0-1.16-.51-1.16-1.14 0-.64.52-1.15 1.17-1.15zm4.05 0c.65 0 1.17.51 1.17 1.15 0 .63-.52 1.14-1.17 1.14h-.1c-.64 0-1.16-.51-1.16-1.14 0-.64.52-1.15 1.17-1.15zm34.12-18.26v12.87a5.55 5.55 0 0 1-5.6 5.52h-15.1a34.24 34.24 0 0 1-1.3 0c-.09.06-.33.28-.56.48l-.3.28-4.28 3.82c-.34.3-.84.39-1.27.2-.42-.18-.71-.6-.71-1.04V985.5h-12.2a3.3 3.3 0 0 0-3.34 3.25v12.86c0 1.79 1.51 3.2 3.33 3.2h16.88c.29 0 .56.12.77.32l3.49 3.15V997.4c0-.63.52-1.14 1.16-1.14.65 0 1.17.51 1.17 1.14v13.46a1.13 1.13 0 0 1-1.15 1.13c-.29 0-.57-.11-.79-.31l-5.1-4.6h-16.43a5.57 5.57 0 0 1-5.66-5.48v-12.86a5.62 5.62 0 0 1 5.66-5.54h12.2v-7.72a5.6 5.6 0 0 1 5.68-5.49h17.85c3.1 0 5.6 2.45 5.6 5.5zm-5.6-3.2h-17.85a3.29 3.29 0 0 0-3.34 3.2v19.54l2.34-2.08c.1-.1.23-.19.32-.27 1.07-.97 1.34-1.12 2.73-1.1l.7.01h15.1a3.24 3.24 0 0 0 3.27-3.23V975.5c0-1.78-1.45-3.2-3.27-3.2z"/><linearGradient id="qlj3b" x1="1123.98" x2="1076.98" y1="997" y2="985" gradientUnits="userSpaceOnUse"><stop offset="0" stop-color="#5ac855"/><stop offset=".5" stop-color="#1d8f8e"/><stop offset="1" stop-color="#5ac855"/></linearGradient></defs><g><g transform="translate(-1075 -969)"><use xlink:href="#qlj3a"/><use fill="url(#qlj3b)" xlink:href="#qlj3a"/></g></g></svg>