<svg xmlns="http://www.w3.org/2000/svg" xmlns:xlink="http://www.w3.org/1999/xlink" width="50" height="54" viewBox="0 0 50 54"><defs><path id="2e4ta" d="M587.91 989.2l-4.18 9.98-1.5-.62 1.23-2.91h-10.22a11.98 11.98 0 0 1 2.45 7.25c0 6.67-5.45 12.1-12.15 12.1s-12.15-5.43-12.15-12.1c0-2.72.92-5.23 2.46-7.25h-12.18v-1.62h13.64a12.12 12.12 0 0 1 16.47 0h12.35l2.03-4.84-2.03-4.84h-6v-1.6h5.33l-1.22-2.92 1.5-.62zm-24.37 3.22c-5.8 0-10.53 4.7-10.53 10.48s4.73 10.49 10.53 10.49c5.81 0 10.53-4.7 10.53-10.49 0-5.78-4.72-10.48-10.53-10.48zm-19.93-1.61a2.75 2.75 0 0 1-2.75-2.74v-.23c0-.95.48-1.81 1.28-2.32l14.49-9.1.23-.13h-.45a2.59 2.59 0 0 1-2.59-2.58c0-1.22.88-2.29 2.09-2.53l6.94-1.38 3.4 1.7a4.18 4.18 0 0 1 3.78 1.45l3.18 3.79.72 3.58h.95a2.43 2.43 0 0 1 2.43 2.42 2.43 2.43 0 0 1-2.43 2.42h-4.66l-1.6-5.55-4.38.62 3.42 4.77-1.04 4.13-7.14.79c-.5.05-1 .08-1.5.08a2.53 2.53 0 0 1-2.54-2.52c0-1.27.96-2.34 2.22-2.5l3.33-.41-1.8-1.8-14.27 7.7c-.4.22-.85.34-1.3.34zm19.1-9.93l-2.03 1.1 3.8 3.78-6.62.82a.9.9 0 0 0-.8.9c0 .5.41.9.91.9.45 0 .9-.02 1.33-.07l6.02-.66.59-2.32zm-5.78-6.2l.15-.01 3.88-.6 3.26-1.78-1.6-.8-6.4 1.27a.97.97 0 0 0-.78.95c0 .53.44.97.97.97zm-13.32 14.51c.19 0 .38-.04.54-.13l19.14-10.32 6.5-.93 1.65 5.74h3.44a.8.8 0 0 0 .81-.8.8.8 0 0 0-.8-.81h-2.29l-.9-4.48-2.91-3.48a2.54 2.54 0 0 0-3.18-.6l-8.16 4.42-14.44 9.09c-.33.2-.53.56-.53.95v.23c0 .62.51 1.12 1.13 1.12zm25.6-19.35a4.85 4.85 0 0 1 9.72 0 4.85 4.85 0 0 1-9.72 0zm1.62 0a3.24 3.24 0 0 0 6.48 0 3.24 3.24 0 0 0-6.48 0zm1.62 33.06v.81h-2.43v-1.61h.77a7.17 7.17 0 0 0-.57-2.1l-.66.38-.81-1.4.65-.38a7.32 7.32 0 0 0-1.54-1.53l-.37.65-1.4-.8.37-.66a7.25 7.25 0 0 0-2.1-.57v.76h-1.63v-.76c-.74.09-1.45.28-2.1.57l.38.65-1.4.8-.39-.64c-.58.43-1.1.95-1.54 1.53l.66.38-.81 1.4-.66-.38a7.2 7.2 0 0 0-.57 2.1h.76v1.61h-2.43v-.8a8.9 8.9 0 0 1 17.82 0zm-8.25 4.5l-1.32-.93 4.05-5.65 1.32.94zm-1.47 1.95h1.62v1.62h-1.62zm3.24 0h1.62v1.62h-1.62zm-6.48 0h1.62v1.62h-1.62z"/><linearGradient id="2e4tb" x1="587.86" x2="540.86" y1="996" y2="984" gradientUnits="userSpaceOnUse"><stop offset="0" stop-color="#5ac855"/><stop offset=".5" stop-color="#1d8f8e"/><stop offset="1" stop-color="#5ac855"/></linearGradient></defs><g><g transform="translate(-539 -963)"><use xlink:href="#2e4ta"/><use fill="url(#2e4tb)" xlink:href="#2e4ta"/></g></g></svg>