<svg xmlns="http://www.w3.org/2000/svg" xmlns:xlink="http://www.w3.org/1999/xlink" width="57" height="48" viewBox="0 0 57 48"><defs><path id="gqsya" d="M857.83 982.52l-3.9 11.33a5.78 5.78 0 0 1-2.7 3.5l-.04.02c-4.67 2.39-4.3 2.1-5.16 3.1.45.28.72.8.66 1.38l-.93 8.21a2.22 2.22 0 0 1-2.17 2.03h-2.25a.78.78 0 0 1-.78-.79c0-.43.35-.78.78-.78h2.23c.22-.02.6-.13.65-.64l.5-4.43-9.83-1.14-.64 5.66c-.01.4.12.55.59.55h2.88c.42 0 .77.35.77.78 0 .44-.35.79-.77.79h-2.88c-1.42 0-2.2-.94-2.14-2.2l1.07-9.53c.08-.73.7-1.28 1.42-1.28.1 0 .13 0 .6.06 1.43-4.72 1.3-4.36 4.3-7.82.94-1.04 1.66-1.3 6.22-3.63.97-.5 1.9-.42 2.67.09l3.48-6.92c1.45-3.94 6.34-2.2 5.37 1.66zm-12.7 19.28l-9.83-1.14-.24 2.09 9.84 1.14zm10.43-21.53c-.84-.23-1.35.33-1.65 1.16l-3.86 7.68c.56 1.38.16 2.7-1.2 3.4-4.07 2.07-3.85 2-4.1 2-.82 0-1.09-1.12-.36-1.5 4.02-2.05 4.2-2.04 4.32-2.49.16-.56-.3-1.6-1.1-1.6-.37 0-.26 0-5.06 2.45-.7.37-1.25.94-1.3 1-2.95 3.39-2.7 2.99-3.9 6.95l6.9.8c1.78-2.02 1.06-1.5 6.22-4.14a4.2 4.2 0 0 0 1.98-2.6l3.88-11.28c.1-.38.26-1.49-.77-1.83zm-27.84 31.82h-8.76c-.77 0-2-.56-2.17-2.03l-.92-8.21c-.07-.57.2-1.1.66-1.39-.89-1-.62-.77-5.16-3.09a5.78 5.78 0 0 1-2.75-3.53l-3.55-11.32c-.97-3.86 3.93-5.61 5.38-1.64l3.16 6.88c.84-.54 1.76-.51 2.63-.07 6.26 3.2 5.15 2.38 7.86 5.51.01.02 1.36 1.62 1.85 3.25l.82 2.69.44-.05c.78-.1 1.49.48 1.58 1.27l1.06 9.48c.1 1.12-.58 2.25-2.13 2.25zm-9.41-11.98l6.9-.8c-.68-2.2-.83-3.3-2.28-5.08-2.53-2.92-1.28-2.01-7.39-5.13a1.34 1.34 0 0 0-.6-.17c-.77 0-1.26 1-1.1 1.59.13.44.24.41 4.32 2.5.39.2.54.67.35 1.05a.77.77 0 0 1-1.05.35l-3.75-1.92c-1.38-.7-1.76-2.04-1.2-3.41l-3.48-7.58-.04-.08c-.3-.83-.8-1.4-1.65-1.16-1.03.35-.86 1.47-.77 1.84l3.55 11.33a4.2 4.2 0 0 0 1.96 2.54c5.13 2.62 4.41 2.08 6.23 4.13zm-.65 3.78l9.83-1.14-.23-2.09-9.84 1.14zm10.65 6.08l-.64-5.66-9.84 1.14.5 4.44c.06.5.43.61.66.63h8.73c.47 0 .6-.14.59-.55zm1.05-32v-.5a2.1 2.1 0 0 0-2.1-2.1h-.95a2.1 2.1 0 0 0-2.09 2.1v6.32c0 .26.21.47.47.47h4.2c.26 0 .47-.2.47-.47v-2.14c0-.44.34-.8.77-.8s.78.36.78.8v2.14c0 1.13-.9 2.04-2.02 2.04h-4.2a2.03 2.03 0 0 1-2.02-2.04v-6.31a3.7 3.7 0 0 1 1.56-3.03c-3.05-2.45-1.33-7.43 2.56-7.43 3.88 0 5.6 4.98 2.56 7.43a3.7 3.7 0 0 1 1.56 3.03v.5c0 .43-.35.78-.78.78a.78.78 0 0 1-.77-.78zm0-6.78c0-1.43-1.16-2.6-2.57-2.6a2.59 2.59 0 0 0-2.57 2.6c0 1.43 1.15 2.6 2.57 2.6a2.59 2.59 0 0 0 2.57-2.6zm11.02 6.29v6.31c0 1.13-.9 2.04-2.01 2.04h-4.2a2.03 2.03 0 0 1-2.02-2.04v-6.31a3.7 3.7 0 0 1 1.56-3.03c-3.05-2.45-1.33-7.43 2.56-7.43 3.87 0 5.6 4.98 2.56 7.43a3.7 3.7 0 0 1 1.55 3.03zm-4.11-3.69a2.59 2.59 0 0 0 2.56-2.6c0-1.43-1.15-2.6-2.56-2.6a2.59 2.59 0 0 0-2.57 2.6c0 1.43 1.15 2.6 2.57 2.6zm2.56 10v-6.31a2.1 2.1 0 0 0-2.09-2.12h-.95a2.1 2.1 0 0 0-2.1 2.12v6.31c0 .26.22.47.47.47h4.2c.26 0 .47-.2.47-.47zm7.6-4.98c.45.45.74 1.09.74 1.79v3.2c0 1.12-.9 2.03-2.02 2.03h-1.44a2.03 2.03 0 0 1-2.02-2.04v-3.2c0-.7.29-1.33.75-1.78-1.65-1.76-.4-4.68 2-4.68 2.39 0 3.63 2.92 1.98 4.68zm-3.19-1.9c0 .66.54 1.2 1.2 1.2a1.2 1.2 0 0 0 1.18-1.2c0-.67-.53-1.21-1.19-1.21a1.2 1.2 0 0 0-1.19 1.2zm2.38 6.88v-3.2c0-.5-.4-.91-.9-.91h-.57c-.5 0-.9.41-.9.92v3.2c0 .25.2.46.46.46h1.44c.26 0 .47-.2.47-.47zm-24.97-4.98c.46.45.75 1.09.75 1.79v3.2c0 1.12-.9 2.03-2.02 2.03h-1.44a2.03 2.03 0 0 1-2.02-2.04v-3.2c0-.7.29-1.33.75-1.78-1.65-1.76-.4-4.68 2-4.68 2.39 0 3.63 2.92 1.98 4.68zm-.8 1.79c0-.5-.4-.92-.9-.92h-.57c-.5 0-.9.41-.9.92v3.2c0 .25.2.46.46.46h1.44c.26 0 .47-.2.47-.47zm0-3.7c0-.66-.53-1.2-1.19-1.2a1.2 1.2 0 0 0-1.19 1.2 1.2 1.2 0 0 0 2.38 0z"/><linearGradient id="gqsyb" x1="857.95" x2="804.95" y1="997.02" y2="982.09" gradientUnits="userSpaceOnUse"><stop offset="0" stop-color="#5ac855"/><stop offset=".5" stop-color="#1d8f8e"/><stop offset="1" stop-color="#5ac855"/></linearGradient></defs><g><g transform="translate(-803 -966)"><use xlink:href="#gqsya"/><use fill="url(#gqsyb)" xlink:href="#gqsya"/></g></g></svg>