<?xml version="1.0" encoding="iso-8859-1"?>
<!-- Generator: Adobe Illustrator 18.1.1, SVG Export Plug-In . SVG Version: 6.00 Build 0)  -->
<svg version="1.1" id="Capa_1" xmlns="http://www.w3.org/2000/svg" xmlns:xlink="http://www.w3.org/1999/xlink" x="0px" y="0px"
	 viewBox="0 0 326.883 326.883" style="enable-background:new 0 0 326.883 326.883;" xml:space="preserve">
<g>
	<g>
		<path style="fill:#fff;" d="M275.932,49.262H50.945v57.783h224.987V49.262z M263.998,95.112H62.879V61.196h201.119V95.112z"/>
		<path style="fill:#fff;" d="M275.932,124.117H50.945V181.9h224.987V124.117z M263.998,169.966H62.879v-33.916h201.119V169.966z
			"/>
		<rect x="72.199" y="70.666" style="fill:#fff;" width="14.971" height="14.971"/>
		<rect x="94.652" y="70.666" style="fill:#fff;" width="14.971" height="14.971"/>
		<rect x="117.112" y="70.666" style="fill:#fff;" width="14.971" height="14.971"/>
		<rect x="72.199" y="145.52" style="fill:#fff;" width="14.971" height="14.965"/>
		<rect x="94.652" y="145.52" style="fill:#fff;" width="14.971" height="14.965"/>
		<rect x="117.112" y="145.52" style="fill:#fff;" width="14.971" height="14.965"/>
		<path style="fill:#fff;" d="M8.222,0v231.163h310.438V0H8.222z M306.727,219.229H20.156V11.934h286.571V219.229z"/>
		<path style="fill:#fff;" d="M207.564,258.264h-88.244v28.343H14.189v11.934h105.13v28.343h88.244V298.54h105.13v-11.934
			h-105.13V258.264z M195.63,314.949h-64.377v-44.752h64.377V314.949z"/>
	</g>
</g>
<g>
</g>
<g>
</g>
<g>
</g>
<g>
</g>
<g>
</g>
<g>
</g>
<g>
</g>
<g>
</g>
<g>
</g>
<g>
</g>
<g>
</g>
<g>
</g>
<g>
</g>
<g>
</g>
<g>
</g>
</svg>
