<?xml version="1.0" encoding="iso-8859-1"?>
<!-- Generator: Adobe Illustrator 19.0.0, SVG Export Plug-In . SVG Version: 6.00 Build 0)  -->
<svg version="1.1" id="Capa_1" xmlns="http://www.w3.org/2000/svg" xmlns:xlink="http://www.w3.org/1999/xlink" x="0px" y="0px"
	 viewBox="0 0 480 480" style="enable-background:new 0 0 480 480;" xml:space="preserve">
	 	<linearGradient id="primary_gradient" spreadMethod="reflect">
		<stop offset="0%"  stop-color="#5ac855" stop-opacity="1"/>
		<stop offset="100%" stop-color="#1d8f8e" stop-opacity="1"/>
	</linearGradient>
<g>
	<g>
		<path fill="url(#primary_gradient)" d="M468,104h-8v-8c0-12.88-7.688-23.936-18.68-29.008C447.888,59.864,452,50.432,452,40c0-22.056-17.944-40-40-40
			c-22.056,0-40,17.944-40,40c0,10.432,4.112,19.864,10.68,26.992C371.688,72.064,364,83.12,364,96v8h-72V88h40c4.424,0,8-3.584,8-8
			V16c0-4.416-3.576-8-8-8h-88c-4.424,0-8,3.584-8,8v64c0,4.416,3.576,8,8,8h32v16h-48c-4.424,0-8,3.584-8,8v34.8
			c-18.616,6.608-32,24.344-32,45.2c0,12.816,5.072,24.44,13.28,33.056C175.52,230.072,156,252.792,156,280v72c0,4.416,3.576,8,8,8
			h24v112c0,4.416,3.576,8,8,8h80c4.424,0,8-3.584,8-8V360h24c4.424,0,8-3.584,8-8v-72c0-5.56-0.84-10.928-2.36-16H468
			c4.424,0,8-3.584,8-8V112C476,107.584,472.424,104,468,104z M412,16c13.232,0,24,10.768,24,24s-10.768,24-24,24s-24-10.768-24-24
			S398.768,16,412,16z M380,96c0-8.824,7.176-16,16-16h32c8.824,0,16,7.176,16,16v8h-64V96z M252,72V24h72v48H252z M236,160
			c17.648,0,32,14.352,32,32s-14.352,32-32,32s-32-14.352-32-32S218.352,160,236,160z M300,344h-16v-64h-16v72v112h-24V352h-16v112
			h-24V352v-72h-16v64h-16v-64c0-22.056,17.944-40,40-40h16h8h24c2.408,0,4.744,0.304,7.032,0.712c0.656,0.12,1.32,0.248,1.968,0.4
			c2.088,0.48,4.12,1.088,6.072,1.888c0.552,0.224,1.064,0.512,1.608,0.76c1.568,0.728,3.08,1.552,4.536,2.464
			c0.688,0.432,1.368,0.88,2.024,1.352c1.552,1.12,3.04,2.32,4.416,3.648c0.448,0.432,0.864,0.88,1.296,1.328
			c1.248,1.312,2.4,2.712,3.456,4.184c0.472,0.648,0.912,1.32,1.344,2C297.656,264.92,300,272.176,300,280V344z M460,248H305.904
			c-0.16-0.224-0.344-0.424-0.504-0.648c-0.864-1.192-1.752-2.368-2.704-3.488c-0.24-0.28-0.504-0.544-0.744-0.824
			c-0.952-1.08-1.92-2.136-2.952-3.136c-0.224-0.216-0.456-0.408-0.688-0.624c-1.096-1.032-2.216-2.032-3.392-2.976
			c-0.136-0.112-0.288-0.208-0.424-0.32c-1.288-1.008-2.608-1.976-3.976-2.872c-0.024-0.016-0.04-0.024-0.064-0.04
			c-5.88-3.832-12.504-6.6-19.632-8c-0.016,0-0.032-0.008-0.048-0.016c0.432-0.456,0.816-0.952,1.232-1.416
			c0.44-0.504,0.896-1,1.32-1.52c0.544-0.664,1.04-1.368,1.544-2.064c0.384-0.528,0.784-1.048,1.144-1.592
			c0.488-0.736,0.928-1.504,1.376-2.264c0.32-0.544,0.664-1.08,0.96-1.648c0.424-0.8,0.8-1.624,1.184-2.448
			c0.264-0.568,0.544-1.12,0.792-1.696c0.36-0.856,0.656-1.752,0.968-2.632c0.2-0.576,0.432-1.136,0.608-1.72
			c0.288-0.936,0.504-1.896,0.736-2.856c0.136-0.56,0.304-1.104,0.416-1.672c0.208-1.032,0.344-2.096,0.48-3.152
			c0.072-0.52,0.176-1.024,0.232-1.552c0.144-1.592,0.232-3.2,0.232-4.824c0-26.472-21.528-48-48-48v-24h136h80h8V248z"/>
	</g>
</g>
<g>
	<g>
		<path fill="url(#primary_gradient)" d="M188,16H12c-4.424,0-8,3.584-8,8v128c0,4.416,3.576,8,8,8h176c4.424,0,8-3.584,8-8V24C196,19.584,192.424,16,188,16z
			 M180,144H20V32h160V144z"/>
	</g>
</g>
<g>
	<g>
		<rect fill="url(#primary_gradient)" x="36" y="48" width="16" height="16"/>
	</g>
</g>
<g>
	<g>
		<rect fill="url(#primary_gradient)" x="68" y="48" width="16" height="16"/>
	</g>
</g>
<g>
	<g>
		<rect fill="url(#primary_gradient)" x="132" y="48" width="32" height="16"/>
	</g>
</g>
<g>
	<g>
		<rect fill="url(#primary_gradient)" x="36" y="80" width="16" height="16"/>
	</g>
</g>
<g>
	<g>
		<rect fill="url(#primary_gradient)" x="68" y="80" width="16" height="16"/>
	</g>
</g>
<g>
	<g>
		<rect fill="url(#primary_gradient)" x="132" y="80" width="32" height="16"/>
	</g>
</g>
<g>
	<g>
		<rect fill="url(#primary_gradient)" x="36" y="112" width="16" height="16"/>
	</g>
</g>
<g>
	<g>
		<rect fill="url(#primary_gradient)" x="68" y="112" width="16" height="16"/>
	</g>
</g>
<g>
	<g>
		<rect fill="url(#primary_gradient)" x="132" y="112" width="32" height="16"/>
	</g>
</g>
<g>
	<g>
		<rect fill="url(#primary_gradient)" x="100" y="48" width="16" height="16"/>
	</g>
</g>
<g>
	<g>
		<rect fill="url(#primary_gradient)" x="100" y="80" width="16" height="16"/>
	</g>
</g>
<g>
	<g>
		<rect fill="url(#primary_gradient)" x="100" y="112" width="16" height="16"/>
	</g>
</g>
<g>
	<g>
		<path fill="url(#primary_gradient)" d="M388,208v-24c3.4,0,6.424-2.144,7.544-5.352s0.104-6.776-2.544-8.896l-40-32c-2.92-2.336-7.08-2.336-10,0l-40,32
			c-2.648,2.12-3.672,5.688-2.544,8.896C301.584,181.856,304.6,184,308,184v24h-8v16h96v-16H388z M348,154.248L365.192,168H330.8
			L348,154.248z M340,208h-16v-24h16V208z M372,208h-16v-24h16V208z"/>
	</g>
</g>
<g>
</g>
<g>
</g>
<g>
</g>
<g>
</g>
<g>
</g>
<g>
</g>
<g>
</g>
<g>
</g>
<g>
</g>
<g>
</g>
<g>
</g>
<g>
</g>
<g>
</g>
<g>
</g>
<g>
</g>
</svg>
