<?xml version="1.0" encoding="utf-8"?>
<!-- Generator: Adobe Illustrator 21.0.1, SVG Export Plug-In . SVG Version: 6.00 Build 0)  -->
<svg version="1.1" id="Слой_1" xmlns="http://www.w3.org/2000/svg" xmlns:xlink="http://www.w3.org/1999/xlink" x="0px" y="0px"
	 viewBox="0 0 1400 160" style="enable-background:new 0 0 1400 160;" xml:space="preserve">
<style type="text/css">
	.st0{fill:#141E2F;}
</style>
<path class="st0" d="M1199.8,160c2,0,4.1,0,6.2,0c70.4-0.4,122.5-7.2,148-11c18.9-2.8,34.6-5.7,46-8V0H0v34c18.3-4.5,43.2-9.8,73-14
	c21.4-3,54.3-6.6,107-7c27.8-0.2,78.3,0.3,154,8c91.1,9.2,160.5,22.9,211,33c41.5,8.3,33.2,7.6,154,34c74.3,16.2,111.5,24.3,141,30
	c43.7,8.4,107.6,20.5,191,30C1089.3,154.6,1136.5,160,1199.8,160z"/>
</svg>
