<svg xmlns="http://www.w3.org/2000/svg" xmlns:xlink="http://www.w3.org/1999/xlink" width="55" height="54" viewBox="0 0 55 54"><defs><path id="x5m1a" d="M678.58 2667.8a.82.82 0 1 1 0 1.65.82.82 0 0 1 0-1.64zm3.3 0a.82.82 0 1 1 0 1.65.82.82 0 0 1 0-1.64zm3.28 0a.82.82 0 1 1 0 1.65.82.82 0 0 1 0-1.64zm-7.4 20.48l10.59 9.96h-10.6zm1.64 8.32h4.8l-4.8-4.52zm43.6-38.66h-4.94v-1.65h-2.78a9.87 9.87 0 0 1 4.43 8.23h.82c1.36 0 2.47 1.1 2.47 2.46v31.26c0 1.36-1.1 2.47-2.47 2.47h-21.16l.79.74c.78.74.69 1.38.56 1.7-.13.32-.5.85-1.57.85h-24.68a2.47 2.47 0 0 1-2.47-2.47v-23.03c0-1.1.6-1.48.85-1.59.24-.1.87-.25 1.62.38v-10.3c0-1.37 1.1-2.47 2.47-2.47h23.03a9.87 9.87 0 0 1 4.42-8.23h-2.78v1.65h-4.93V2653h4.93v1.65h16.45V2653H723zm-3.29-1.65h1.64v-1.65h-1.64zm-19.74-1.65h-1.65v1.65h1.65zm-23.86 12.34v4.12h26.4a9.77 9.77 0 0 1-2.39-4.93H676.94a.82.82 0 0 0-.83.81zm-1.64 35.37h24.25l-13.99-13.16-2.48-2.33-8.6-8.1v3.85h1.64v1.65h-1.64v1.64h1.64v1.65h-1.64v1.64h1.64v1.65h-1.64v1.64h1.64v1.65h-1.64v1.64h1.64v1.65h-1.64v1.64h1.64v1.65h-1.64v.82c0 .46.36.82.82.82zm10.92-14.8h12.11v-11.52h-18.1v5.89zm35.96-14.8h-6.1c-.16.1-.31.21-.48.3v.94c.5.37.83.96.83 1.63 0 .47-.16.89-.43 1.23.27.35.43.77.43 1.24 0 1.13-.93 2.06-2.06 2.06h-7.4a2.06 2.06 0 0 1-2.06-2.06c0-.47.16-.89.42-1.24a2.03 2.03 0 0 1 .4-2.86v-.93l-.47-.32h-28.32v6.08l1.65 1.55v-5.98h21.39v14.8h-12.02l10.5 9.87h22.9c.46 0 .82-.36.82-.82zm-15.62 5.34c0 .23.18.41.4.41h7.41a.41.41 0 0 0 0-.82h-7.4a.41.41 0 0 0-.41.4zm.4-2.06h7.41a.41.41 0 0 0 0-.82h-7.4a.41.41 0 0 0 0 .82zm13.4-9.74a9.77 9.77 0 0 1-2.36 4.8h4.18v-4.1a.82.82 0 0 0-.82-.83h-.96a.6.6 0 0 1-.04.13zm-9.7-10a8.24 8.24 0 0 0-3.73 15.55l.45.23v1.5h2.47v-5.88a3.29 3.29 0 1 1 1.64 0v5.87h2.47v-1.5l.45-.22a8.24 8.24 0 0 0-3.74-15.55zm1.65 8.23a1.65 1.65 0 1 0-3.29 0 1.65 1.65 0 0 0 3.3 0zm-10.69 18.1h18.92v1.64h-18.92zm0 3.28h18.92v1.65h-18.92zm0 3.3h18.92v1.64h-18.92zm0 3.28h18.92v1.65h-18.92z"/></defs><g><g transform="translate(-670 -2652)"><use fill="#091743" xlink:href="#x5m1a"/></g></g></svg>