<svg xmlns="http://www.w3.org/2000/svg" xmlns:xlink="http://www.w3.org/1999/xlink" width="57" height="52" viewBox="0 0 57 52"><defs><path id="gahwa" d="M330.59 2672.43c0 .48-.39.87-.86.87h-2.82a.86.86 0 0 1-.84-.7c-.45-2.21-1.3-4.3-2.56-6.2a.88.88 0 0 1 .11-1.1l2-2.02a.37.37 0 0 0 0-.52l-3.46-3.5a.36.36 0 0 0-.52 0l-2 2.02a.85.85 0 0 1-1.08.1 17.24 17.24 0 0 0-6.15-2.57.87.87 0 0 1-.69-.85v-2.85c0-.2-.16-.37-.36-.37h-4.9c-.2 0-.37.17-.37.37v2.85c0 .4-.28.77-.69.85-2.19.45-4.26 1.32-6.14 2.58a.85.85 0 0 1-1.09-.11l-2-2.02a.36.36 0 0 0-.51 0l-3.46 3.5a.37.37 0 0 0 0 .52l2 2.02c.28.29.33.75.1 1.1-1.25 1.9-2.1 3.99-2.55 6.2-.08.41-.44.7-.85.7h-2.81c-.2 0-.37.17-.37.37v4.95c0 .2.17.37.37.37h2.81c.41 0 .77.29.85.7.44 2.2 1.3 4.3 2.55 6.2.23.35.18.8-.1 1.1l-2 2.02a.37.37 0 0 0 0 .52l3.46 3.5c.14.14.37.14.51 0l2-2.02a.85.85 0 0 1 1.09-.11 17.24 17.24 0 0 0 6.14 2.58c.4.08.7.44.7.85v2.85c0 .48-.4.87-.87.87a.87.87 0 0 1-.86-.87v-2.15a18.91 18.91 0 0 1-5.47-2.3l-1.5 1.53c-.82.82-2.15.82-2.96 0l-3.46-3.5a2.13 2.13 0 0 1 0-2.98l1.5-1.53a19.32 19.32 0 0 1-2.27-5.52h-2.12a2.1 2.1 0 0 1-2.09-2.11v-4.95c0-1.16.94-2.1 2.09-2.1h2.12c.47-1.96 1.23-3.81 2.28-5.54l-1.51-1.52a2.13 2.13 0 0 1 0-2.98l3.46-3.5a2.07 2.07 0 0 1 2.95 0l1.51 1.52a18.9 18.9 0 0 1 5.47-2.3v-2.14c0-1.16.94-2.11 2.09-2.11h4.9a2.1 2.1 0 0 1 2.08 2.1v2.16c1.93.47 3.77 1.24 5.47 2.3l1.51-1.53a2.07 2.07 0 0 1 2.95 0l3.47 3.5c.81.82.81 2.16 0 2.98l-1.51 1.52a19.32 19.32 0 0 1 2.27 5.53h2.13c.47 0 .86.4.86.87zm-14.89.76a.86.86 0 0 1-1.17-.32 6.5 6.5 0 0 0-5.62-3.28 6.53 6.53 0 0 0-6.49 6.55 6.6 6.6 0 0 0 3.24 5.68c.41.24.55.77.32 1.19a.86.86 0 0 1-1.18.32 8.34 8.34 0 0 1-4.1-7.19c0-4.57 3.68-8.3 8.2-8.3a8.22 8.22 0 0 1 7.12 4.16c.24.41.1.95-.32 1.19zM341 2678v22.27c0 1.5-1.21 2.73-2.7 2.73h-27.56a2.72 2.72 0 0 1-2.7-2.73V2678c0-1.5 1.22-2.73 2.7-2.73h27.56c1.49 0 2.7 1.23 2.7 2.73zm-1.72 22.27V2678a.98.98 0 0 0-.98-.99h-27.56a.98.98 0 0 0-.97.99v22.27c0 .55.44.99.97.99h27.56c.54 0 .98-.44.98-.99zm-19.7-27.02a.86.86 0 0 1-1.1-.53 10.19 10.19 0 0 0-9.57-6.84c-5.6 0-10.16 4.6-10.16 10.26 0 4.35 2.72 8.24 6.77 9.69a.87.87 0 0 1-.28 1.69c-.1 0-.2-.02-.3-.05a12.02 12.02 0 0 1-7.92-11.33c0-6.62 5.33-12 11.89-12 5.02 0 9.53 3.21 11.2 8a.87.87 0 0 1-.52 1.1zm17.75 8.46c0 .48-.39.87-.87.87h-1.83a.87.87 0 0 1-.86-.87c0-.48.38-.87.86-.87h1.83c.48 0 .87.4.87.87zm-5.52 0c0 .48-.38.87-.86.87h-18.37a.87.87 0 0 1-.86-.87c0-.48.39-.87.86-.87h18.37c.48 0 .86.4.86.87zm.67 6.19l-9.19 9.28a.85.85 0 0 1-1.21 0l-5.51-5.57a.88.88 0 0 1 0-1.23.86.86 0 0 1 1.21 0l4.9 4.95 8.58-8.66a.85.85 0 0 1 1.22 0c.34.34.34.89 0 1.23z"/></defs><g><g transform="translate(-285 -2652)"><use fill="#091743" xlink:href="#gahwa"/></g></g></svg>