<svg xmlns="http://www.w3.org/2000/svg" xmlns:xlink="http://www.w3.org/1999/xlink" width="50" height="55" viewBox="0 0 50 55"><defs><path id="clkma" d="M1089.44 2658.08l-.1 1.57-.4 6.26a5.96 5.96 0 0 1-11.92 0l-.36-5.48-.15-2.35a4.8 4.8 0 0 1 4.75-5.08h3.43a4.77 4.77 0 0 1 4.75 5.08zm-5.84-1.2l.68-1.8h-3.02a2.68 2.68 0 0 0-2.69 2.88l.08 1.28c3.58-.46 4.79-2.11 4.95-2.37zm3.62 3.5a10.5 10.5 0 0 1-2.09-.71c-.32-.17-.6-.35-.82-.54-.99.84-2.71 1.84-5.52 2.17l.29 4.47a3.9 3.9 0 0 0 7.79 0zm-.56-4.45a2.74 2.74 0 0 0-.37-.33l-.71 1.89c.07.07.22.2.5.34.17.08.53.24 1.28.44l.02-.32c.05-.75-.2-1.47-.72-2.02zm11.27 27.64c-.2.24-.48.38-.79.38h-28.33a1.03 1.03 0 0 1-1.02-1.22l.57-3.15a9.17 9.17 0 0 1 9.02-7.56h2.25c.27 0 .53.11.73.3l2.6 2.57 2.55-2.56c.2-.2.46-.3.74-.3h2.31a9.23 9.23 0 0 1 9.02 7.56l.58 3.14c.05.3-.03.6-.23.84zm-18.72-9.47h-.98l4.74 4.76 4.75-4.76h-1.05l-2.96 2.98c-.4.4-1.06.41-1.46.01l-3.04-3zm16.7 7.78l-.35-1.93a7.16 7.16 0 0 0-5.16-5.61l-6.7 6.71a1.03 1.03 0 0 1-1.46 0l-6.7-6.71a7.16 7.16 0 0 0-5.15 5.61l-.35 1.93zm-7.7 7.66c0 .57-.47 1.04-1.04 1.04h-.63a1.03 1.03 0 0 1 0-2.07h.63c.57 0 1.04.46 1.04 1.03zm-1.37 11.58a3.88 3.88 0 1 1-4.9-3.73v-6.81h-15.37a2.67 2.67 0 0 0-2.67 2.67v4.14a3.88 3.88 0 0 1-1.03 7.61 3.88 3.88 0 0 1-1.04-7.61v-4.14a4.75 4.75 0 0 1 4.74-4.74h15.37v-1.6a1.03 1.03 0 1 1 2.07 0v10.48a3.88 3.88 0 0 1 2.83 3.73zm-23.97-1.8a1.8 1.8 0 1 0 0 3.6 1.8 1.8 0 0 0 0-3.6zm21.9 1.8a1.8 1.8 0 1 0-3.6 0 1.8 1.8 0 0 0 3.6 0zm22.23 0a3.88 3.88 0 1 1-4.95-3.72v-4.15c0-1.47-1.2-2.67-2.67-2.67h-8.53a1.03 1.03 0 0 1 0-2.07h8.53a4.75 4.75 0 0 1 4.73 4.74v4.12a3.88 3.88 0 0 1 2.89 3.75zm-2.07 0a1.8 1.8 0 1 0-3.6 0 1.8 1.8 0 0 0 3.6 0z"/></defs><g><g transform="translate(-1058 -2652)"><use fill="#091743" xlink:href="#clkma"/></g></g></svg>