<?xml version="1.0" encoding="iso-8859-1"?>
<!-- Generator: Adobe Illustrator 19.0.0, SVG Export Plug-In . SVG Version: 6.00 Build 0)  -->
<svg fill="#fff" version="1.1" id="Capa_1" xmlns="http://www.w3.org/2000/svg" xmlns:xlink="http://www.w3.org/1999/xlink" x="0px" y="0px"
	 viewBox="0 0 480 480" style="enable-background:new 0 0 480 480;" xml:space="preserve">
<g>
	<g>
		<path d="M440,0H40C17.944,0,0,17.944,0,40v248v32c0,22.056,17.944,40,40,40h134.416l-13.088,72h-31.432
			c-9.152,0-17.376,5.088-21.472,13.264c-3.744,7.496-3.352,16.224,1.048,23.352c4.4,7.128,12.04,11.384,20.416,11.384h220.216
			c8.384,0,16.016-4.256,20.424-11.384c4.4-7.128,4.8-15.856,1.048-23.352c-4.088-8.176-12.32-13.264-21.464-13.264H318.68
			l-13.096-72H440c22.056,0,40-17.944,40-40v-32V40C480,17.944,462.056,0,440,0z M16,40c0-13.232,10.768-24,24-24h200v64H120
			c-4.416,0-8,3.576-8,8v192H16V40z M312,96v80v104H128V96H312z M312,448h38.112c3.056,0,5.8,1.696,7.16,4.424
			c1.808,3.6,0.36,6.64-0.352,7.784c-0.712,1.136-2.776,3.792-6.808,3.792H129.888c-4.024,0-6.104-2.656-6.808-3.8
			c-0.704-1.144-2.152-4.176-0.344-7.784c1.36-2.72,4.104-4.416,7.152-4.416H168h64c4.416,0,8-3.576,8-8s-3.584-8-8-8h-54.416
			l13.088-72h98.648l13.096,72H280c-4.424,0-8,3.576-8,8s3.576,8,8,8H312z M464,320c0,13.232-10.768,24-24,24H296H184H40
			c-13.232,0-24-10.768-24-24v-24h104h200h16h128V320z M328,280v-96h32v72c0,13.232-10.768,24-24,24H328z M464,280h-96.208
			c5.08-6.704,8.208-14.96,8.208-24v-80c0-4.424-3.576-8-8-8h-40V88c0-4.424-3.576-8-8-8h-64V16h184c13.232,0,24,10.768,24,24V280z"
			/>
	</g>
</g>
<g>
	<g>
		<path d="M256,312h-32c-4.416,0-8,3.576-8,8s3.584,8,8,8h32c4.424,0,8-3.576,8-8S260.424,312,256,312z"/>
	</g>
</g>
<g>
	<g>
		<path d="M280,248H144c-4.416,0-8,3.576-8,8s3.584,8,8,8h136c4.424,0,8-3.576,8-8S284.424,248,280,248z"/>
	</g>
</g>
<g>
	<g>
		<path d="M248,112c-4.416,0-8,3.576-8,8v52c0,11.032-8.976,20-20,20s-20-8.968-20-20v-16.688l2.344,2.344
			c3.128,3.128,8.184,3.128,11.312,0c3.128-3.128,3.128-8.184,0-11.312l-16-16c-2.288-2.288-5.728-2.992-8.72-1.736
			C185.952,129.84,184,132.768,184,136v36c0,19.848,16.152,36,36,36s36-16.152,36-36v-52C256,115.576,252.424,112,248,112z"/>
	</g>
</g>
<g>
	<g>
		<path d="M288,112h-16c-4.424,0-8,3.576-8,8s3.576,8,8,8h16c4.424,0,8-3.576,8-8S292.424,112,288,112z"/>
	</g>
</g>
<g>
	<g>
		<path d="M288,144h-16c-4.424,0-8,3.576-8,8s3.576,8,8,8h16c4.424,0,8-3.576,8-8S292.424,144,288,144z"/>
	</g>
</g>
<g>
	<g>
		<path d="M288,176h-16c-4.424,0-8,3.576-8,8s3.576,8,8,8h16c4.424,0,8-3.576,8-8S292.424,176,288,176z"/>
	</g>
</g>
<g>
	<g>
		<path d="M288,216h-24c-4.424,0-8,3.576-8,8s3.576,8,8,8h24c4.424,0,8-3.576,8-8S292.424,216,288,216z"/>
	</g>
</g>
<g>
	<g>
		<path d="M168,112h-16c-4.416,0-8,3.576-8,8s3.584,8,8,8h16c4.416,0,8-3.576,8-8S172.416,112,168,112z"/>
	</g>
</g>
<g>
	<g>
		<path d="M232,216h-80c-4.416,0-8,3.576-8,8s3.584,8,8,8h80c4.416,0,8-3.576,8-8S236.416,216,232,216z"/>
	</g>
</g>
<g>
	<g>
		<path d="M168,176h-16c-4.416,0-8,3.576-8,8s3.584,8,8,8h16c4.416,0,8-3.576,8-8S172.416,176,168,176z"/>
	</g>
</g>
<g>
	<g>
		<path d="M168,144h-16c-4.416,0-8,3.576-8,8s3.584,8,8,8h16c4.416,0,8-3.576,8-8S172.416,144,168,144z"/>
	</g>
</g>
<g>
</g>
<g>
</g>
<g>
</g>
<g>
</g>
<g>
</g>
<g>
</g>
<g>
</g>
<g>
</g>
<g>
</g>
<g>
</g>
<g>
</g>
<g>
</g>
<g>
</g>
<g>
</g>
<g>
</g>
</svg>
