<?xml version="1.0" encoding="utf-8"?>
<!-- Generator: Adobe Illustrator 21.0.1, SVG Export Plug-In . SVG Version: 6.00 Build 0)  -->
<svg version="1.1" id="Слой_1" xmlns="http://www.w3.org/2000/svg" xmlns:xlink="http://www.w3.org/1999/xlink" x="0px" y="0px"
	 viewBox="0 0 1400 160" style="enable-background:new 0 0 1400 160;" xml:space="preserve">
<style type="text/css">
	.st0{fill:#141E2F;}
</style>
<path class="st0" d="M200.2,0c-2,0-4.1,0-6.2,0C123.6,0.4,71.5,7.2,46,11c-18.9,2.8-34.6,5.7-46,8l0,141h1400v-34
	c-18.3,4.5-43.2,9.8-73,14c-21.4,3-54.3,6.6-107,7c-27.8,0.2-78.3-0.3-154-8c-91.1-9.2-160.5-22.9-211-33c-41.5-8.3-33.2-7.6-154-34
	c-74.3-16.2-111.5-24.3-141-30c-43.7-8.4-107.6-20.5-191-30C310.7,5.4,263.5,0,200.2,0z"/>
</svg>
